<svg xmlns="http://www.w3.org/2000/svg" width="76" height="77" viewBox="0 0 76 77">
    <path fill="#CF041C" fill-rule="evenodd" d="M64.79 11.263a37.768 37.768 0 0 0-53.577-.235C4.083 18.102.044 27.775 0 37.886c-.043 10.111 3.91 19.819 10.98 26.956l.233.236a37.769 37.769 0 0 0 53.578.235c7.131-7.074 11.17-16.747 11.214-26.858.044-10.111-3.911-19.82-10.981-26.956a79.207 79.207 0 0 0-.233-.236zm-.456 47.98c-.126-1.522-1.24-3.331-2.415-4.305-2.056-1.7-4.46-2.946-6.803-4.213-2.828-1.522-6.06-2.172-8.387-4.796-1.108-1.256-1.064-2.555-.962-4.566.087-1.797.457-3.477.972-4.13.354-1.033.724.838 1.798-1.23a16.921 16.921 0 0 0 1.754-4.736c.252-1.406.505-2.738-1.084-3.044 1.234-4.534.442-8.082-2.303-11.606-2.887-3.693-6.993-3.939-11.23-4.062.292-.263 1.667-.415 1.924-.65a24.174 24.174 0 0 0-4.004.458c-.354.105-.704.226-1.04.363a9.948 9.948 0 0 0-5.048 4.517c-1.895 3.51-1.366 7.72.039 11.58-1.458.515-1.458 1.668-1.2 2.865.135.633 1.137 4.414 1.486 4.947 1.429 2.16 2.032.951 2.032.951 1.156 2.178.772 3.235.918 5.158.073.951.238 2.369-.272 2.897a17.724 17.724 0 0 1-4.359 3.212c-2.925 1.564-6.03 2.708-8.887 4.35-2.58 1.491-5.214 3.44-5.579 6.775a48.16 48.16 0 0 0-.087.991c-5.44-6.315-8.436-14.415-8.431-22.797 0-19.294 15.627-34.991 34.836-34.991 19.208 0 34.836 15.697 34.836 34.991.005 8.363-2.976 16.445-8.392 22.755a47.455 47.455 0 0 0-.112-1.684z"/>
</svg>
